HIERARCHY
ROOT Hips
{
	OFFSET	0.000000	0.000000	0.000000
	CHANNELS 6 Xposition Yposition Zposition Zrotation Xrotation Yrotation
	JOINT LeftHip
	{
		OFFSET	4.740440	-3.195970	-0.322709
		CHANNELS 3 Zrotation Xrotation Yrotation
		JOINT LeftKnee
		{
			OFFSET	-1.605680	-15.592300	1.005510
			CHANNELS 3 Zrotation Xrotation Yrotation
			JOINT LeftAnkle
			{
				OFFSET	-0.632401	-16.421000	-1.413730
				CHANNELS 3 Zrotation Xrotation Yrotation
				End Site
				{
					OFFSET	0.008423	-2.933000	-1.684880
				}
			}
		}
	}
	JOINT RightHip
	{
		OFFSET	-4.740440	-3.195970	-0.322709
		CHANNELS 3 Zrotation Xrotation Yrotation
		JOINT RightKnee
		{
			OFFSET	1.605680	-15.592300	1.005510
			CHANNELS 3 Zrotation Xrotation Yrotation
			JOINT RightAnkle
			{
				OFFSET	0.632401	-16.421000	-1.413730
				CHANNELS 3 Zrotation Xrotation Yrotation
				End Site
				{
					OFFSET	-0.008423	-2.933000	-1.684880
				}
			}
		}
	}
	JOINT Chest
	{
		OFFSET	0.000000	3.468200	0.078401
		CHANNELS 3 Zrotation Xrotation Yrotation
		JOINT LeftCollar
		{
			OFFSET	3.857650	15.070700	-0.011583
			CHANNELS 3 Zrotation Xrotation Yrotation
			JOINT LeftShoulder
			{
				OFFSET	3.979720	-1.940530	-0.165223
				CHANNELS 3 Zrotation Xrotation Yrotation
				JOINT LeftElbow
				{
					OFFSET	0.615844	-10.986600	-0.673886
					CHANNELS 3 Zrotation Xrotation Yrotation
					JOINT LeftWrist
					{
						OFFSET	0.826843	-10.854500	1.034220
						CHANNELS 3 Zrotation Xrotation Yrotation
						End Site
						{
							OFFSET	-1.679080	-8.456540	0.936217
						}
					}
				}
			}
		}
		JOINT RightCollar
		{
			OFFSET	-3.857650	15.070700	-0.011583
			CHANNELS 3 Zrotation Xrotation Yrotation
			JOINT RightShoulder
			{
				OFFSET	-3.979720	-1.940530	-0.165223
				CHANNELS 3 Zrotation Xrotation Yrotation
				JOINT RightElbow
				{
					OFFSET	-0.615845	-10.986600	-0.673886
					CHANNELS 3 Zrotation Xrotation Yrotation
					JOINT RightWrist
					{
						OFFSET	-0.826843	-10.854500	1.034220
						CHANNELS 3 Zrotation Xrotation Yrotation
						End Site
						{
							OFFSET	1.679080	-8.456540	0.936217
						}
					}
				}
			}
		}
		JOINT Neck
		{
			OFFSET	0.000000	15.101400	0.055730
			CHANNELS 3 Zrotation Xrotation Yrotation
			JOINT Head
			{
				OFFSET	0.000000	4.185120	1.488260
				CHANNELS 3 Zrotation Xrotation Yrotation
				End Site
				{
					OFFSET	0.000000	7.773420	-0.106016
				}
			}
		}
	}
}
MOTION
Frames:     14
Frame Time: 1.0
-6.601072	36.672173	69.401489	-3.757632	-7.005146	-0.221044	9.129244	-18.714357	6.579545	0.295884	3.469992	13.176146	-12.495018	8.517741	-1.085000	4.641885	8.215244	4.199418	6.666343	14.789670	6.423120	-7.997766	-14.027540	0.528798	3.183775	6.671149	1.966431	2.111467	2.812850	5.730402	-0.647304	12.088028	7.481656	-3.663891	-9.399973	-11.949642	10.568583	10.256738	-26.388744	-1.419929	-0.451965	1.034314	-13.210987	-8.971918	2.486527	2.249913	-29.579561	12.475059	-7.137800	-3.020004	19.237408	0.241918	11.147759	-2.210406	5.631506	11.214978	-7.634108	
-6.482577	36.488197	70.409927	-4.597084	-7.073997	-0.765380	9.533349	-17.921701	6.824171	1.033895	-2.892807	12.301214	-13.764479	8.905512	-1.661349	5.142003	9.965866	4.750482	6.829977	14.941683	6.111333	-7.914711	-15.129098	0.973462	3.508046	6.386415	2.305555	2.248625	3.172157	5.811516	-0.704459	12.432962	7.820431	-3.197659	-8.788296	-11.580486	10.516021	10.229161	-26.337797	-1.055206	-0.157503	1.217533	-13.516349	-9.128056	2.429726	2.430387	-29.535538	12.567009	-7.257954	-3.395535	19.344048	0.458910	11.531869	-2.160662	5.530388	11.038016	-7.415157	
-6.425287	36.387665	70.787041	-5.288525	-7.176038	-1.311233	9.921720	-17.640097	6.804865	1.395734	-4.479041	12.111693	-13.972640	9.039186	-1.418953	5.641593	10.681714	5.080318	6.862072	15.050062	6.177693	-7.854262	-15.485559	1.143936	3.985177	6.396823	2.716272	2.271207	3.286240	5.821898	-0.623771	12.530345	7.890487	-3.001050	-8.123085	-11.351105	10.498965	9.682655	-26.341749	-0.916378	-0.062903	1.247437	-13.585656	-9.151116	2.410681	2.382441	-29.438704	12.561550	-7.257368	-3.524513	19.346102	0.562760	11.699325	-2.153870	5.416427	10.924595	-7.314057	
-6.320446	36.205383	71.826172	-5.586230	-7.138407	-1.680634	9.095677	-18.113607	4.538773	2.449176	-5.930360	14.019625	-15.613514	8.950140	-0.638142	5.490788	12.152786	4.518713	6.940905	15.842932	6.893834	-7.541945	-16.482723	1.626820	3.686803	6.121247	2.969208	2.297585	3.422581	5.903232	-0.189362	12.645208	7.995679	-2.757712	-7.818495	-11.289601	10.523252	9.845290	-26.359753	-0.396869	0.179651	1.346774	-13.605298	-9.193016	2.255070	2.473037	-29.047493	12.716854	-7.617099	-3.683912	19.427425	0.926312	11.982143	-1.995483	5.254112	10.669001	-7.335882	
-6.276992	35.974251	72.646645	-5.592826	-7.028758	-1.807608	9.073925	-18.501318	3.870169	2.421840	-5.473277	14.806515	-15.881903	8.785627	-0.503698	5.305934	12.485909	4.275385	7.040721	17.926224	6.641803	-7.191560	-17.852005	2.269732	3.517358	5.954026	3.033246	2.248197	3.422400	5.989476	0.024847	12.683800	8.007099	-2.562459	-7.564277	-11.224832	10.449138	9.701673	-26.416636	-0.258130	0.244288	1.407752	-13.511725	-9.170918	2.226602	2.403865	-28.746798	12.707469	-7.755023	-3.797727	19.466854	0.957093	12.039529	-1.873070	5.243680	10.618783	-7.346684	
-6.137120	35.940632	73.566650	-5.367136	-6.651924	-2.163446	8.827312	-19.839720	2.548861	2.260565	-2.090899	15.674375	-14.315487	8.440806	-0.819099	4.366936	13.224042	3.343174	7.105164	18.815941	7.781387	-6.139745	-17.239195	3.022487	2.904824	5.370000	3.058373	2.070450	3.402601	6.379834	0.347010	12.567539	8.160866	-2.069549	-7.186863	-11.096386	10.684874	9.802444	-26.726559	-0.091045	0.435630	1.678088	-12.839628	-8.978467	2.361457	1.901093	-27.437202	12.402610	-8.236372	-4.030818	19.504162	0.732402	12.001850	-1.294098	5.387271	10.713995	-7.420828	
-6.091329	35.829327	74.285652	-5.360448	-6.640797	-2.415449	8.805397	-20.138954	2.531135	1.469735	1.531958	13.852274	-13.100408	6.351527	0.228597	4.019669	13.583809	3.153101	7.247497	20.428556	7.658916	-5.340869	-16.923231	3.723071	2.674860	5.167861	2.963956	2.138530	3.495295	6.715865	0.355391	12.559792	8.241229	-1.707775	-7.170533	-10.716379	10.686641	9.826376	-27.074383	-0.001931	0.576848	1.931799	-12.518329	-8.841914	2.502866	1.715501	-26.880108	12.238808	-8.385139	-3.332084	19.468437	0.441995	11.878242	-0.951857	5.637903	10.966170	-7.322484	
-5.917330	35.771809	75.098442	-5.677258	-7.431178	-3.565520	8.877544	-19.752531	3.443572	1.869148	3.644639	12.788471	-8.494526	9.828365	0.165571	2.973236	15.425570	2.774716	7.527976	21.651768	8.802207	-4.391180	-16.117132	4.634775	2.727890	5.694441	3.538051	1.780970	3.457246	6.947134	0.286925	12.520142	8.680594	-1.004104	-7.061237	-10.155518	11.216771	9.845968	-27.044550	-0.144203	0.515460	2.076214	-11.590621	-8.059484	2.891153	1.263075	-24.955633	11.789332	-8.755868	-4.019712	19.705156	0.319785	11.993603	-0.640637	5.198124	10.668780	-6.945541	
-5.786753	35.914185	75.713799	-5.710743	-8.105868	-3.875953	8.589089	-19.048300	3.660384	1.690996	5.443322	10.074072	-7.491720	9.958389	2.209954	2.527862	16.335760	2.508180	7.600221	23.621864	8.737412	-3.636996	-14.554579	5.438441	2.670875	6.255092	3.532081	1.559813	3.487527	7.052104	0.412519	12.501075	8.597254	-0.783132	-7.221322	-9.183987	11.395194	9.857326	-27.352219	-0.158154	0.539003	2.221916	-11.341968	-7.803758	2.978071	1.171654	-24.199535	11.646671	-8.846094	-4.014463	19.829054	0.334852	12.071827	-0.530324	4.979907	10.508758	-6.772677	
-5.498876	35.907387	76.660172	-5.023778	-10.011209	-4.344792	6.846610	-17.341940	2.931986	2.054091	8.178245	9.509892	-5.277006	13.608940	3.036276	0.321453	18.277500	1.854851	8.188766	25.928318	9.795765	-3.550923	-12.233165	5.877264	1.796339	8.037355	3.328246	0.745941	3.481369	7.095315	1.070467	12.286307	8.803949	-0.583700	-7.263056	-8.065952	11.781704	9.526535	-26.444101	-0.160857	0.614038	2.588942	-10.619728	-7.113278	2.993047	0.847206	-21.747995	11.284947	-9.042610	-3.988958	20.290415	-0.179113	11.796540	-0.072908	4.886727	10.340833	-6.489189	
-5.272017	35.957172	77.354286	-4.641546	-10.395560	-4.308528	6.316428	-17.271214	3.194699	1.350627	10.858885	8.235079	-4.487780	12.704881	4.204248	-0.506202	18.470764	1.639331	8.596704	28.532412	9.721205	-3.919199	-9.681313	5.951687	1.398159	8.435458	3.131629	0.513442	3.398395	7.084207	1.335140	11.851462	8.414660	-0.377747	-7.242190	-7.074302	11.746502	9.680787	-26.353281	-0.180183	0.684983	2.724709	-10.303213	-6.927125	2.914705	0.684949	-20.869938	11.184481	-9.122324	-3.982501	20.467409	-0.532524	11.592776	0.158810	5.044077	10.304337	-6.460474	
-4.949779	35.753395	77.897087	-3.724211	-11.131553	-3.878883	4.790731	-17.692829	4.248756	0.894317	14.104064	5.971197	-1.172339	13.356644	5.186325	-2.351027	18.041588	0.885676	9.358751	32.324795	10.207397	-4.231429	-7.227886	5.780933	0.491432	9.258430	2.630150	0.047875	2.938374	6.753504	1.824153	11.432243	8.432529	-0.180612	-7.217179	-6.380017	11.814174	9.658871	-25.517660	-0.435668	0.883089	2.748749	-8.870895	-6.217078	2.784696	-0.152662	-18.148270	10.709517	-9.332350	-3.862985	20.973087	-1.349864	11.190403	0.222515	5.356795	10.072329	-6.218110	
-4.858972	35.806759	78.568596	-3.503506	-11.487264	-3.720628	4.614954	-17.460411	4.507613	0.377530	16.626362	6.129123	-0.024662	11.448420	4.716717	-2.845569	17.882673	0.709134	9.681043	35.333168	10.268516	-4.176201	-4.885395	5.477965	0.236657	9.632051	2.529490	-0.040711	2.736476	6.583297	2.152142	10.814480	8.111809	-0.112735	-7.418997	-5.881772	11.717388	10.350131	-25.584694	-0.517203	0.972213	2.690644	-8.293680	-5.968944	2.812899	-0.520646	-17.201443	10.434076	-9.396904	-3.780605	21.138395	-1.483012	11.115407	0.123299	5.391882	10.000610	-6.116366	
-4.826759	35.862213	79.235283	-2.923005	-12.381693	-3.370359	3.852850	-15.949678	6.492572	0.605903	17.846167	4.269079	1.904782	10.370302	4.624921	-4.381906	16.865047	0.930405	11.058125	39.409382	10.065584	-4.177384	-2.470747	4.819314	-0.517180	10.621643	2.358240	-0.165639	2.156579	6.097689	2.626097	10.453367	8.136242	-0.172862	-7.957176	-5.485027	11.850148	10.324182	-25.691904	-0.780133	1.229922	2.469930	-6.714281	-5.240677	3.035951	-1.308880	-14.414939	9.477818	-9.630312	-3.303622	21.556849	-1.907149	10.793537	-0.044027	5.654355	10.028612	-6.035540	
